<svg width="120" height="27" viewBox="0 0 120 27" fill="none" xmlns="http://www.w3.org/2000/svg">
<path d="M98.8435 26.6502C97.8242 26.6502 96.9869 26.3347 96.3317 25.7037C95.6764 25.0485 95.3488 24.1869 95.3488 23.1191C95.3488 22.0755 95.6764 21.0926 96.3317 20.1704C96.9869 19.2239 97.8849 18.3745 99.0255 17.6221C100.166 16.8698 101.465 16.2631 102.921 15.802C103.236 15.7049 103.394 15.4986 103.394 15.1831V11.8704C103.394 10.7055 103.212 9.88032 102.848 9.39494C102.484 8.88529 101.986 8.63047 101.355 8.63047C100.749 8.63047 100.19 8.90956 99.6808 9.46775C99.1954 10.0017 98.8435 10.9118 98.6251 12.198C98.5037 12.9746 98.2368 13.5449 97.8242 13.909C97.4359 14.2487 97.0355 14.4186 96.6229 14.4186C95.9434 14.4186 95.6036 14.0789 95.6036 13.3993C95.6036 12.6955 95.7977 12.0039 96.186 11.3243C96.5986 10.6205 97.1325 9.98953 97.7878 9.43134C98.4431 8.84889 99.159 8.38778 99.9356 8.04801C100.712 7.70824 101.489 7.53836 102.265 7.53836C104.668 7.53836 105.869 8.93383 105.869 11.7248V22.8642C105.869 23.8835 106.124 24.3932 106.634 24.3932C106.949 24.3932 107.241 24.1869 107.508 23.7743C107.774 23.3375 107.908 22.6094 107.908 21.5901C107.908 21.2018 108.066 21.0077 108.381 21.0077C108.672 21.0077 108.818 21.2139 108.818 21.6265C108.818 23.3982 108.503 24.6844 107.872 25.4853C107.265 26.2619 106.573 26.6502 105.797 26.6502C105.214 26.6502 104.753 26.4197 104.413 25.9585C104.073 25.4732 103.843 24.9028 103.722 24.2476C103.697 24.0049 103.588 23.8835 103.394 23.8835C103.224 23.8593 103.054 23.9685 102.884 24.2112C102.302 25.0121 101.707 25.6188 101.101 26.0314C100.494 26.4439 99.7414 26.6502 98.8435 26.6502ZM99.8264 24.9756C100.457 24.9756 101.04 24.7572 101.574 24.3204C102.108 23.8593 102.545 23.2525 102.884 22.5002C103.224 21.7479 103.394 20.8985 103.394 19.952V17.2945C103.394 16.8334 103.139 16.6999 102.629 16.8941C101.149 17.428 99.9963 18.1682 99.1711 19.1147C98.3702 20.0369 97.9698 21.1533 97.9698 22.4638C97.9698 24.1384 98.5887 24.9756 99.8264 24.9756Z" fill="#FFFAF4"/>
<path d="M89.1377 26.6502C88.5795 26.6502 87.9849 26.5774 87.3539 26.4318C86.7229 26.3104 86.2133 26.1527 85.825 25.9585C85.6066 25.8372 85.4974 25.6309 85.4974 25.3397L85.3882 21.2625C85.3882 20.8499 85.5459 20.6436 85.8614 20.6436C86.1284 20.6436 86.3104 20.8378 86.4074 21.2261C86.82 22.9492 87.3175 24.1262 87.9 24.7572C88.5067 25.3882 89.2348 25.7037 90.0842 25.7037C90.788 25.7037 91.3705 25.4368 91.8316 24.9028C92.2927 24.3447 92.5232 23.5802 92.5232 22.6094C92.5232 21.6387 92.2563 20.7771 91.7224 20.0248C91.1884 19.2724 90.2905 18.4473 89.0285 17.5493C87.7665 16.6999 86.8443 15.8505 86.2618 15.0011C85.6794 14.1274 85.3882 13.1809 85.3882 12.1616C85.3882 10.7783 85.8735 9.6619 86.8443 8.81248C87.815 7.96307 89.1013 7.53836 90.7031 7.53836C91.1884 7.53836 91.6617 7.59903 92.1228 7.72038C92.5839 7.81745 92.9965 7.98734 93.3605 8.23003C93.5789 8.37564 93.6882 8.56979 93.6882 8.81248L93.761 12.8169C93.761 13.1809 93.6153 13.3629 93.3241 13.3629C93.1542 13.3629 93.0329 13.3144 92.9601 13.2173C92.8873 13.096 92.8266 12.9504 92.7781 12.7805C92.2927 11.203 91.8073 10.1109 91.3219 9.50415C90.8365 8.87316 90.2419 8.55766 89.5381 8.55766C88.9072 8.55766 88.3854 8.77608 87.9728 9.21292C87.5602 9.64977 87.3539 10.1958 87.3539 10.8511C87.3539 11.7005 87.6088 12.4407 88.1184 13.0717C88.6281 13.7027 89.5503 14.4793 90.8851 15.4015C92.0985 16.2752 93.0086 17.2217 93.6153 18.241C94.2463 19.236 94.5618 20.3281 94.5618 21.5173C94.5618 23.0705 94.0643 24.3204 93.0693 25.2669C92.0743 26.1891 90.7637 26.6502 89.1377 26.6502Z" fill="#FFFAF4"/>
<path d="M69.4534 26.3226C69.0893 26.3226 68.9073 26.1891 68.9073 25.9221C68.9073 25.7037 69.0651 25.5581 69.3806 25.4853L69.8174 25.4125C70.3271 25.3154 70.6547 25.1698 70.8003 24.9756C70.9702 24.7572 71.0551 24.3932 71.0551 23.8835V11.652C71.0551 11.2151 70.9823 10.9239 70.8367 10.7783C70.7154 10.6084 70.4848 10.4992 70.145 10.4506L69.3806 10.3414C69.0651 10.3172 68.9073 10.1837 68.9073 9.94099C68.9073 9.74684 69.1015 9.61336 69.4898 9.54055C70.2421 9.41921 70.8124 9.22506 71.2007 8.9581C71.6133 8.69114 72.038 8.36351 72.4749 7.9752C72.6933 7.75678 72.8753 7.64757 73.0209 7.64757C73.2393 7.64757 73.3485 7.79319 73.3485 8.08441V9.72257C73.3485 9.94099 73.4214 10.0866 73.567 10.1594C73.7369 10.208 73.9189 10.1351 74.113 9.94099C75.0838 9.01877 75.9332 8.38778 76.6613 8.04801C77.4136 7.70824 78.2023 7.53836 79.0275 7.53836C80.1196 7.53836 80.9933 7.92667 81.6486 8.70327C82.3038 9.45561 82.6314 10.572 82.6314 12.0524V23.8835C82.6314 24.3932 82.7042 24.7572 82.8499 24.9756C83.0197 25.1698 83.3595 25.3033 83.8692 25.3761L84.67 25.4853C84.937 25.5338 85.0705 25.6794 85.0705 25.9221C85.0705 26.1891 84.9249 26.3226 84.6336 26.3226H78.5178C78.1781 26.3226 78.0082 26.1891 78.0082 25.9221C78.0082 25.6794 78.1417 25.5338 78.4086 25.4853L78.9183 25.4125C79.4279 25.3397 79.7556 25.1941 79.9012 24.9756C80.0711 24.7572 80.156 24.3932 80.156 23.8835V12.4528C80.156 11.2637 79.9376 10.4264 79.5007 9.94099C79.0639 9.45561 78.445 9.21292 77.6442 9.21292C76.8676 9.21292 76.1638 9.44348 75.5328 9.90459C74.926 10.3414 74.4407 10.936 74.0766 11.6884C73.7126 12.4164 73.5306 13.2294 73.5306 14.1274V23.8835C73.5306 24.3932 73.6034 24.7572 73.749 24.9756C73.9189 25.1941 74.2586 25.3275 74.7683 25.3761L75.7512 25.4853C76.0181 25.5338 76.1516 25.6673 76.1516 25.8857C76.1516 26.177 75.9696 26.3226 75.6056 26.3226H69.4534Z" fill="#FFFAF4"/>
<path d="M59.2817 26.6502C58.2624 26.6502 57.4251 26.3347 56.7699 25.7037C56.1146 25.0485 55.787 24.1869 55.787 23.1191C55.787 22.0755 56.1146 21.0926 56.7699 20.1704C57.4251 19.2239 58.3231 18.3745 59.4637 17.6221C60.6044 16.8698 61.9028 16.2631 63.3589 15.802C63.6744 15.7049 63.8322 15.4986 63.8322 15.1831V11.8704C63.8322 10.7055 63.6501 9.88032 63.2861 9.39494C62.9221 8.88529 62.4246 8.63047 61.7936 8.63047C61.1868 8.63047 60.6287 8.90956 60.119 9.46775C59.6336 10.0017 59.2817 10.9118 59.0633 12.198C58.942 12.9746 58.675 13.5449 58.2624 13.909C57.8741 14.2487 57.4737 14.4186 57.0611 14.4186C56.3816 14.4186 56.0418 14.0789 56.0418 13.3993C56.0418 12.6955 56.236 12.0039 56.6243 11.3243C57.0368 10.6205 57.5708 9.98953 58.226 9.43134C58.8813 8.84889 59.5972 8.38778 60.3738 8.04801C61.1504 7.70824 61.9271 7.53836 62.7037 7.53836C65.1063 7.53836 66.3076 8.93383 66.3076 11.7248V22.8642C66.3076 23.8835 66.5624 24.3932 67.0721 24.3932C67.3876 24.3932 67.6788 24.1869 67.9458 23.7743C68.2127 23.3375 68.3462 22.6094 68.3462 21.5901C68.3462 21.2018 68.504 21.0077 68.8194 21.0077C69.1107 21.0077 69.2563 21.2139 69.2563 21.6265C69.2563 23.3982 68.9408 24.6844 68.3098 25.4853C67.7031 26.2619 67.0114 26.6502 66.2348 26.6502C65.6523 26.6502 65.1912 26.4197 64.8515 25.9585C64.5117 25.4732 64.2811 24.9028 64.1598 24.2476C64.1355 24.0049 64.0263 23.8835 63.8322 23.8835C63.6623 23.8593 63.4924 23.9685 63.3225 24.2112C62.7401 25.0121 62.1455 25.6188 61.5387 26.0314C60.932 26.4439 60.1797 26.6502 59.2817 26.6502ZM60.2646 24.9756C60.8956 24.9756 61.4781 24.7572 62.012 24.3204C62.5459 23.8593 62.9828 23.2525 63.3225 22.5002C63.6623 21.7479 63.8322 20.8985 63.8322 19.952V17.2945C63.8322 16.8334 63.5773 16.6999 63.0677 16.8941C61.5873 17.428 60.4345 18.1682 59.6094 19.1147C58.8085 20.0369 58.408 21.1533 58.408 22.4638C58.408 24.1384 59.0269 24.9756 60.2646 24.9756Z" fill="#FFFAF4"/>
<path d="M43.2628 25.9585C43.1657 25.9585 43.0565 25.9221 42.9351 25.8493C42.8138 25.7765 42.7288 25.6188 42.6803 25.3761L37.1834 3.06071C37.1591 2.89083 37.0863 2.81802 36.965 2.84229C36.8436 2.84229 36.7829 2.92724 36.7829 3.09712L36.0549 23.1919C36.0306 23.8714 36.1398 24.3932 36.3825 24.7572C36.6252 25.097 37.0499 25.3154 37.6566 25.4125L38.1299 25.4853C38.4454 25.5096 38.6031 25.6552 38.6031 25.9221C38.6031 26.1891 38.4211 26.3226 38.0571 26.3226H32.8513C32.4873 26.3226 32.3053 26.1891 32.3053 25.9221C32.3053 25.6552 32.463 25.5096 32.7785 25.4853L33.2518 25.4125C33.8828 25.3154 34.3075 25.097 34.5259 24.7572C34.7686 24.3932 34.9021 23.8714 34.9264 23.1919L35.6544 2.51466C35.6787 2.00501 35.6059 1.66525 35.436 1.49536C35.2661 1.32548 34.9021 1.192 34.3439 1.09493L33.5066 0.949311C33.1911 0.876503 33.0334 0.730889 33.0334 0.512468C33.0334 0.24551 33.2154 0.11203 33.5794 0.11203H37.9478C38.7002 0.11203 39.1613 0.476065 39.3312 1.20413L43.736 19.3695C43.7845 19.5394 43.8573 19.6243 43.9544 19.6243C44.0758 19.6243 44.1486 19.5394 44.1728 19.3695L48.7597 1.02212C48.9053 0.415393 49.2936 0.11203 49.9246 0.11203H54.2202C54.5843 0.11203 54.7663 0.24551 54.7663 0.512468C54.7663 0.730889 54.6085 0.876503 54.293 0.949311L53.4557 1.09493C52.9461 1.192 52.6063 1.32548 52.4364 1.49536C52.2666 1.66525 52.1938 2.00501 52.218 2.51466L52.9461 23.9199C52.9704 24.4296 53.0553 24.7693 53.2009 24.9392C53.3465 25.1091 53.6742 25.2426 54.1838 25.3397L55.0211 25.4853C55.3366 25.5581 55.4943 25.7037 55.4943 25.9221C55.4943 26.1891 55.3123 26.3226 54.9483 26.3226H48.3593C47.9952 26.3226 47.8132 26.1891 47.8132 25.9221C47.8132 25.7037 47.9709 25.5581 48.2864 25.4853L49.1237 25.3397C49.6334 25.2426 49.9731 25.1091 50.143 24.9392C50.3129 24.7693 50.3857 24.4296 50.3614 23.9199L49.7426 3.09712C49.7426 2.92724 49.6819 2.84229 49.5606 2.84229C49.4635 2.81802 49.3907 2.8787 49.3421 3.02431L43.8088 25.3761C43.7603 25.6188 43.6753 25.7765 43.554 25.8493C43.4569 25.9221 43.3598 25.9585 43.2628 25.9585Z" fill="#FFFAF4"/>
<path d="M17.6224 26.6502C16.6031 26.6502 15.7658 26.3347 15.1106 25.7037C14.4553 25.0485 14.1277 24.1869 14.1277 23.1191C14.1277 22.0755 14.4553 21.0926 15.1106 20.1704C15.7658 19.2239 16.6638 18.3745 17.8044 17.6221C18.9451 16.8698 20.2435 16.2631 21.6996 15.802C22.0151 15.7049 22.1729 15.4986 22.1729 15.1831V11.8704C22.1729 10.7055 21.9908 9.88032 21.6268 9.39494C21.2628 8.88529 20.7653 8.63047 20.1343 8.63047C19.5275 8.63047 18.9694 8.90956 18.4597 9.46775C17.9743 10.0017 17.6224 10.9118 17.404 12.198C17.2827 12.9746 17.0157 13.5449 16.6031 13.909C16.2148 14.2487 15.8144 14.4186 15.4018 14.4186C14.7223 14.4186 14.3825 14.0789 14.3825 13.3993C14.3825 12.6955 14.5767 12.0039 14.965 11.3243C15.3775 10.6205 15.9115 9.98953 16.5667 9.43134C17.222 8.84889 17.9379 8.38778 18.7145 8.04801C19.4911 7.70824 20.2677 7.53836 21.0444 7.53836C23.447 7.53836 24.6483 8.93383 24.6483 11.7248V22.8642C24.6483 23.8835 24.9031 24.3932 25.4128 24.3932C25.7283 24.3932 26.0195 24.1869 26.2865 23.7743C26.5534 23.3375 26.6869 22.6094 26.6869 21.5901C26.6869 21.2018 26.8447 21.0077 27.1601 21.0077C27.4514 21.0077 27.597 21.2139 27.597 21.6265C27.597 23.3982 27.2815 24.6844 26.6505 25.4853C26.0438 26.2619 25.3521 26.6502 24.5755 26.6502C23.993 26.6502 23.5319 26.4197 23.1922 25.9585C22.8524 25.4732 22.6218 24.9028 22.5005 24.2476C22.4762 24.0049 22.367 23.8835 22.1729 23.8835C22.003 23.8593 21.8331 23.9685 21.6632 24.2112C21.0808 25.0121 20.4862 25.6188 19.8794 26.0314C19.2727 26.4439 18.5204 26.6502 17.6224 26.6502ZM18.6053 24.9756C19.2363 24.9756 19.8188 24.7572 20.3527 24.3204C20.8866 23.8593 21.3234 23.2525 21.6632 22.5002C22.003 21.7479 22.1729 20.8985 22.1729 19.952V17.2945C22.1729 16.8334 21.918 16.6999 21.4084 16.8941C19.928 17.428 18.7752 18.1682 17.9501 19.1147C17.1492 20.0369 16.7487 21.1533 16.7487 22.4638C16.7487 24.1384 17.3676 24.9756 18.6053 24.9756Z" fill="#FFFAF4"/>
<path d="M0.546053 26.3226C0.182018 26.3226 0 26.1891 0 25.9221C0 25.7037 0.157749 25.5581 0.473246 25.4853L1.31053 25.3397C1.82018 25.2426 2.14781 25.1091 2.29342 24.9392C2.4633 24.7693 2.54825 24.4296 2.54825 23.9199V2.51466C2.54825 2.00501 2.4633 1.66525 2.29342 1.49536C2.14781 1.32548 1.82018 1.192 1.31053 1.09493L0.473246 0.949311C0.157749 0.876503 0 0.730889 0 0.512468C0 0.24551 0.182018 0.11203 0.546053 0.11203H7.2079C7.57193 0.11203 7.75395 0.257644 7.75395 0.548873C7.75395 0.767293 7.62047 0.900772 7.35351 0.949311L6.37062 1.09493C5.86097 1.16773 5.5212 1.30121 5.35132 1.49536C5.2057 1.68952 5.1329 2.04142 5.1329 2.55106V22.937C5.1329 23.8107 5.37559 24.4417 5.86097 24.83C6.37062 25.2183 7.00161 25.4125 7.75395 25.4125C8.31214 25.4125 8.88246 25.3033 9.46491 25.0848C10.0716 24.8422 10.6177 24.4053 11.1031 23.7743C11.5885 23.1191 11.9525 22.1726 12.1952 20.9348L12.6684 18.4958C12.7412 18.1803 12.9232 18.0226 13.2145 18.0226C13.5542 18.0226 13.6999 18.2288 13.6513 18.6414L13.2145 25.4853C13.1659 26.0435 12.8626 26.3226 12.3044 26.3226H0.546053Z" fill="#FFFAF4"/>
<path d="M114.399 11.2011C113.623 11.2011 112.896 11.0567 112.219 10.768C111.542 10.4792 110.945 10.081 110.427 9.57319C109.919 9.05545 109.521 8.45806 109.232 7.78102C108.943 7.10398 108.799 6.37715 108.799 5.60054C108.799 4.82393 108.943 4.09711 109.232 3.42006C109.521 2.74302 109.919 2.15061 110.427 1.64283C110.945 1.12509 111.542 0.721847 112.219 0.433108C112.896 0.144369 113.623 0 114.399 0C115.176 0 115.903 0.144369 116.58 0.433108C117.257 0.721847 117.849 1.12509 118.357 1.64283C118.875 2.15061 119.278 2.74302 119.567 3.42006C119.856 4.09711 120 4.82393 120 5.60054C120 6.37715 119.856 7.10398 119.567 7.78102C119.278 8.45806 118.875 9.05545 118.357 9.57319C117.849 10.081 117.257 10.4792 116.58 10.768C115.903 11.0567 115.176 11.2011 114.399 11.2011ZM114.399 10.6336C115.086 10.6336 115.734 10.5041 116.341 10.2453C116.948 9.97643 117.481 9.61302 117.939 9.15502C118.397 8.68706 118.755 8.14941 119.014 7.54206C119.273 6.93471 119.403 6.28754 119.403 5.60054C119.403 4.91354 119.273 4.26637 119.014 3.65902C118.755 3.05167 118.397 2.519 117.939 2.061C117.481 1.59304 116.948 1.22963 116.341 0.97076C115.734 0.701934 115.086 0.567521 114.399 0.567521C113.712 0.567521 113.065 0.701934 112.458 0.97076C111.851 1.22963 111.318 1.59304 110.86 2.061C110.402 2.519 110.043 3.05167 109.785 3.65902C109.526 4.26637 109.396 4.91354 109.396 5.60054C109.396 6.28754 109.526 6.93471 109.785 7.54206C110.043 8.14941 110.402 8.68706 110.86 9.15502C111.318 9.61302 111.851 9.97643 112.458 10.2453C113.065 10.5041 113.712 10.6336 114.399 10.6336ZM116.475 8.82645C116.107 8.82645 115.823 8.74182 115.624 8.57256C115.425 8.4033 115.281 8.14941 115.191 7.81089L114.937 6.82519C114.818 6.35724 114.693 6.04859 114.564 5.89924C114.434 5.74989 114.23 5.67522 113.951 5.67522C113.742 5.67522 113.638 5.74989 113.638 5.89924V8.03491C113.638 8.16434 113.658 8.25395 113.698 8.30374C113.737 8.34356 113.817 8.37343 113.936 8.39335L114.25 8.43815C114.33 8.44811 114.38 8.473 114.399 8.51282C114.429 8.54269 114.444 8.57256 114.444 8.60243C114.444 8.702 114.39 8.75178 114.28 8.75178H112.174C112.075 8.75178 112.025 8.702 112.025 8.60243C112.025 8.51282 112.07 8.46304 112.159 8.45308L112.383 8.42321C112.533 8.4033 112.632 8.37343 112.682 8.33361C112.732 8.28382 112.757 8.19919 112.757 8.07971V3.03176C112.757 2.90233 112.732 2.81769 112.682 2.77787C112.632 2.72809 112.533 2.69324 112.383 2.67332L112.204 2.64346C112.085 2.6335 112.025 2.58372 112.025 2.49411C112.025 2.39454 112.09 2.34476 112.219 2.34476H114.385C115.002 2.34476 115.505 2.49411 115.893 2.7928C116.281 3.0915 116.475 3.47482 116.475 3.94278C116.475 4.32113 116.336 4.65965 116.057 4.95835C115.788 5.25704 115.435 5.47111 114.997 5.60054C114.887 5.63041 114.887 5.67024 114.997 5.72002C115.216 5.79967 115.385 5.92413 115.505 6.09339C115.624 6.25269 115.719 6.46676 115.788 6.73559L116.027 7.63167C116.107 7.94032 116.197 8.14941 116.296 8.25893C116.396 8.36845 116.525 8.42321 116.684 8.42321C116.774 8.42321 116.884 8.38339 117.013 8.30374C117.073 8.26391 117.123 8.25893 117.162 8.2888C117.212 8.30871 117.237 8.34854 117.237 8.40828C117.237 8.53771 117.162 8.64226 117.013 8.72191C116.864 8.79161 116.684 8.82645 116.475 8.82645ZM114.325 5.39145C114.643 5.39145 114.927 5.27198 115.176 5.03302C115.435 4.78411 115.564 4.46052 115.564 4.06226C115.564 3.62417 115.435 3.28565 115.176 3.04669C114.927 2.79778 114.633 2.67332 114.295 2.67332C113.857 2.67332 113.638 2.78782 113.638 3.01682V4.89861C113.638 5.22717 113.867 5.39145 114.325 5.39145Z" fill="#FFFAF4"/>
</svg>
