<?xml version="1.0" encoding="UTF-8"?><svg xmlns="http://www.w3.org/2000/svg" viewBox="0 0 30 30"><defs><style>.d{fill:#fff;}</style></defs><g id="a"/><g id="b"><g id="c"><circle cx="15" cy="15" r="15"/><path class="d" d="M17.79,12.28c-.55-.32-1.27-.62-1.97-.62-.37,0-.8,.1-1.02,.32-.12,.12-.22,.32-.22,.5,0,.25,.17,.4,.35,.5,.25,.15,.62,.22,1.07,.37l.95,.3c.62,.2,1.27,.45,1.84,.97,.65,.6,.87,1.27,.87,2.12,0,1.47-.65,2.42-1.15,2.92-1.1,1.1-2.44,1.27-3.62,1.27-1.5,0-3.12-.32-4.56-1.6l1.52-2.42c.35,.3,.85,.65,1.22,.82,.5,.25,1.02,.35,1.5,.35,.22,0,.8,0,1.12-.25,.22-.17,.37-.45,.37-.72,0-.2-.07-.45-.4-.65-.25-.15-.57-.25-1.1-.4l-.9-.27c-.65-.2-1.32-.55-1.8-1.02-.52-.55-.8-1.17-.8-2.02,0-1.07,.42-1.97,1.07-2.57,1-.92,2.34-1.12,3.37-1.12,1.65,0,2.79,.42,3.69,.95l-1.42,2.27Z"/></g></g></svg>