<?xml version="1.0" encoding="UTF-8"?><svg xmlns="http://www.w3.org/2000/svg" viewBox="0 0 30 30"><defs><style>.d{fill:#fff;}</style></defs><g id="a"/><g id="b"><g id="c"><circle cx="15" cy="15" r="15"/><g><path class="d" d="M13.54,11.62h2.56v7.44c0,1.12-.05,2.38-.98,3.37-.98,1.05-2.47,1.17-3.34,1.17-1.05,0-2.31-.16-3.3-1.01-.5-.43-1.01-1.1-1.19-2.1h2.79c.11,.41,.35,.64,.57,.78,.3,.2,.73,.27,1.1,.27,.73,0,1.1-.27,1.28-.43,.5-.48,.51-1.31,.51-1.65v-.91c-.3,.5-.91,1.19-2.36,1.19-1.23,0-2.17-.39-2.89-1.12-.64-.66-1.15-1.62-1.15-2.98s.5-2.47,1.17-3.16c.48-.5,1.4-1.14,2.88-1.14s2.08,.76,2.36,1.19v-.92Zm-3.18,2.47c-.39,.37-.6,.99-.6,1.47,0,.51,.2,1.05,.55,1.42,.36,.37,.83,.57,1.44,.57,.67,0,1.12-.27,1.38-.51,.39-.37,.62-.92,.62-1.51,0-.62-.27-1.14-.6-1.46-.37-.34-.92-.5-1.38-.5-.57,0-1.08,.21-1.4,.51Z"/><path class="d" d="M20.85,13.68v5.86h-2.56v-5.86h-.92v-2.06h.92v-1.56c0-.89,.09-1.9,.89-2.75,.51-.55,1.24-.91,2.22-.91,.57,0,1.03,.11,1.46,.27v2.24c-.28-.18-.66-.3-.98-.3-.39,0-.64,.18-.75,.32-.28,.37-.28,.99-.28,1.37v1.33h2.02v2.06h-2.02Z"/></g></g></g></svg>